<svg width="20" height="20" viewBox="0 0 20 20" fill="none" xmlns="http://www.w3.org/2000/svg">
<rect x="0.5" y="0.5" width="19" height="19" rx="9.5" fill="#0D0D0D"/>
<rect x="0.5" y="0.5" width="19" height="19" rx="9.5" stroke="#0D0D0D"/>
<path d="M6.3907 14.0001C6.31343 14.0001 6.23789 13.9772 6.17364 13.9343C6.10939 13.8914 6.05931 13.8304 6.02974 13.759C6.00017 13.6876 5.99243 13.6091 6.00751 13.5333C6.02259 13.4575 6.0598 13.3879 6.11445 13.3332L13.3333 6.11443C13.4065 6.04116 13.5059 6 13.6095 6C13.7131 6 13.8125 6.04116 13.8858 6.11443C13.959 6.18769 14.0002 6.28707 14.0002 6.39068C14.0002 6.4943 13.959 6.59367 13.8858 6.66693L6.66695 13.8858C6.63071 13.9221 6.58765 13.9509 6.54024 13.9705C6.49283 13.9901 6.44201 14.0002 6.3907 14.0001Z" fill="white"/>
<path d="M13.6095 14.0001C13.5582 14.0002 13.5074 13.9901 13.46 13.9705C13.4126 13.9509 13.3695 13.9221 13.3332 13.8858L6.11443 6.66693C6.04116 6.59367 6 6.4943 6 6.39068C6 6.28707 6.04116 6.18769 6.11443 6.11443C6.18769 6.04116 6.28707 6 6.39068 6C6.4943 6 6.59367 6.04116 6.66693 6.11443L13.8858 13.3332C13.9404 13.3879 13.9776 13.4575 13.9927 13.5333C14.0078 13.6091 14 13.6876 13.9705 13.759C13.9409 13.8304 13.8908 13.8914 13.8266 13.9343C13.7623 13.9772 13.6868 14.0001 13.6095 14.0001Z" fill="white"/>
</svg>
