<svg width="21" height="20" viewBox="0 0 21 20" fill="none" xmlns="http://www.w3.org/2000/svg">
<path d="M13.8333 4.99996V4.33329C13.8333 3.39987 13.8333 2.93316 13.6517 2.57664C13.4919 2.26304 13.2369 2.00807 12.9233 1.84828C12.5668 1.66663 12.1001 1.66663 11.1667 1.66663H9.83333C8.89991 1.66663 8.4332 1.66663 8.07668 1.84828C7.76308 2.00807 7.50811 2.26304 7.34832 2.57664C7.16667 2.93316 7.16667 3.39987 7.16667 4.33329V4.99996M8.83333 9.58329V13.75M12.1667 9.58329V13.75M3 4.99996H18M16.3333 4.99996V14.3333C16.3333 15.7334 16.3333 16.4335 16.0608 16.9683C15.8212 17.4387 15.4387 17.8211 14.9683 18.0608C14.4335 18.3333 13.7335 18.3333 12.3333 18.3333H8.66667C7.26654 18.3333 6.56647 18.3333 6.03169 18.0608C5.56129 17.8211 5.17883 17.4387 4.93915 16.9683C4.66667 16.4335 4.66667 15.7334 4.66667 14.3333V4.99996" stroke="#991B1B" stroke-width="1.5" stroke-linecap="round" stroke-linejoin="round"/>
</svg>
