<svg width="21" height="20" viewBox="0 0 21 20" fill="none" xmlns="http://www.w3.org/2000/svg">
<path d="M10.5 16.6667H18M3.00003 16.6667H4.39548C4.80313 16.6667 5.00696 16.6667 5.19877 16.6206C5.36883 16.5798 5.53141 16.5125 5.68053 16.4211C5.84872 16.318 5.99285 16.1739 6.2811 15.8856L16.7501 5.41669C17.4404 4.72634 17.4404 3.60705 16.7501 2.91669C16.0597 2.22634 14.9404 2.22634 14.2501 2.91669L3.78108 13.3856C3.49283 13.6739 3.3487 13.818 3.24563 13.9862C3.15425 14.1353 3.08691 14.2979 3.04608 14.468C3.00003 14.6598 3.00003 14.8636 3.00003 15.2713V16.6667Z" stroke="#667085" stroke-width="1.5" stroke-linecap="round" stroke-linejoin="round"/>
</svg>
