<svg width="466" height="423" viewBox="0 0 466 423" fill="none" xmlns="http://www.w3.org/2000/svg">
<g clip-path="url(#clip0_465_6352)">
<path d="M134.308 265.506H66.5898C50.4717 265.506 37.4017 252.436 37.4017 236.318V212.245C37.4017 196.127 50.4717 183.057 66.5898 183.057H134.308C150.426 183.057 163.496 196.127 163.496 212.245V236.318C163.496 252.436 150.426 265.506 134.308 265.506Z" fill="#C8C9DB"/>
<path d="M97.2251 199.164L93.6561 194.005C92.0114 191.631 89.3031 190.211 86.4139 190.211H63.4757C55.2193 190.211 55.7182 199.164 55.7182 199.164V235.468H142.246V199.164H97.2251Z" fill="#D8D8E7"/>
<path d="M134.659 252.869H62.1874V207.119H138.77V248.757C138.77 251.027 136.928 252.869 134.659 252.869Z" fill="#EECEAD"/>
<path d="M138.14 258.839H55.7238V213.089H142.252V254.727C142.252 256.997 140.41 258.839 138.14 258.839Z" fill="#E9E9F2"/>
<path d="M377.883 160.683V175.853L397.554 174.564L397.176 159.252L377.883 160.683Z" fill="#E5959D"/>
<path d="M398.398 149.833C398.804 149.132 399.21 148.43 399.615 147.723C399.73 147.52 399.851 147.311 400.032 147.163C400.591 146.697 401.534 147.032 401.858 147.69C402.181 148.348 401.995 149.148 401.611 149.768C401.468 149.998 401.293 150.217 401.205 150.475C401.057 150.908 401.178 151.374 401.233 151.829C401.37 152.914 401.128 154.055 400.525 154.965C399.917 155.875 398.941 156.544 397.861 156.73M375.318 149.521C375.307 148.633 375.076 147.755 374.643 146.977C374.495 146.714 374.314 146.451 374.046 146.308C373.437 145.99 372.697 146.44 372.253 146.966C372.116 147.131 371.984 147.311 371.929 147.52C371.853 147.827 371.946 148.145 372.045 148.446C372.121 148.693 372.204 148.934 372.28 149.181C372.681 150.436 373.086 151.73 373.004 153.046C372.977 153.463 372.9 153.896 373.009 154.301C373.168 154.894 373.7 155.327 374.281 155.513C374.862 155.699 375.487 155.683 376.096 155.628" fill="#E5959D"/>
<path d="M375.219 150.245C367.428 131.649 377.922 120.021 394.873 125.448C395.273 125.574 395.662 125.733 396.035 125.931C403.886 130.015 403.53 141.1 398.568 150.629L391.331 144.916L383.59 146.44L375.219 150.245Z" fill="#100259"/>
<path d="M377.209 137.942C375.493 142.515 373.059 151.922 377.187 161.423C377.346 161.785 377.571 162.108 377.861 162.372L382.735 166.862C383.492 167.558 384.479 167.947 385.509 167.947H388.338C389.33 167.947 390.29 167.585 391.035 166.933L396.227 162.383C397.499 161.264 398.327 159.724 398.552 158.046C399.127 153.72 399.84 144.998 397.499 138.425C396.786 136.418 394.999 134.982 392.888 134.669C389.983 134.242 385.553 133.776 381.957 134.198C379.797 134.455 377.971 135.908 377.209 137.942Z" fill="#F9AEAC"/>
<path d="M402.894 391.841L402.45 399.801C402.351 401.627 403.239 403.359 404.774 404.346L415.958 411.506C416.841 412.071 417.992 412.011 418.809 411.358C419.763 410.596 420.01 409.253 419.39 408.2L414.407 399.725L413.201 392.45L402.894 391.841ZM363.492 390.629V401.605C363.492 402.861 362.396 403.836 361.151 403.688L342.16 401.43C341.13 401.309 340.96 399.878 341.941 399.522L347.522 397.493C349.836 396.655 351.376 394.451 351.376 391.989V386.392L363.492 390.629Z" fill="#E5B283"/>
<path d="M410.169 263.943L415.015 394.872H399.259L385.92 274.853L365.915 393.661L348.339 389.417L361.069 257.879L410.169 263.943Z" fill="#195ECB"/>
<path d="M377.801 171.505C377.801 171.505 384.281 179.602 393.941 172.508C395.493 171.368 397.554 171.209 399.297 172.026L410.235 177.13L412.482 178.177C413.403 178.605 413.672 179.794 413.014 180.567C410.015 184.131 403.596 193.917 408.349 208.171C408.349 208.171 407.74 254.848 413.201 267.578C413.201 267.578 367.132 274.853 356.826 262.726L364.704 224.536L344.699 222.112C344.699 222.112 348.942 185.134 367.127 176.044L377.801 171.505Z" fill="#D79840"/>
<path d="M336.217 237.88H386.529L372.692 204.383H321.168L336.217 237.88Z" fill="#195ECB"/>
<path d="M386.529 237.88L393.799 229.393L365.312 229.996L371.37 237.88H386.529Z" fill="#195ECB"/>
<path d="M352.884 224.542C354.725 224.542 356.217 223.049 356.217 221.208C356.217 219.367 354.725 217.875 352.884 217.875C351.043 217.875 349.55 219.367 349.55 221.208C349.55 223.049 351.043 224.542 352.884 224.542Z" fill="#DCEFF8"/>
<path d="M402.285 232.726L390.767 231.515C390.767 231.515 382.406 227.332 387.033 233.044C387.806 233.993 387.965 235.303 387.417 236.394L387.379 236.471C386.852 237.518 385.783 238.181 384.616 238.181H377.099C376.206 238.181 375.877 239.354 376.644 239.815C378.766 241.081 382.423 242.677 387.741 243.033L405.317 240.61L402.285 232.726Z" fill="#F9AEAC"/>
<path d="M417.274 183.681C422.893 192.892 427 211.049 429.532 227.239C429.927 229.755 428.557 232.222 426.221 233.236C419.083 236.339 404.56 242.573 402.291 243.028L399.867 231.509L412.597 224.234L407.142 207.261L403.431 189.224C403.086 187.557 403.316 185.825 404.078 184.306C406.715 179.016 414.193 178.627 417.274 183.681Z" fill="#F3B34E"/>
<path d="M289.245 392.033L282.024 393.184L260.736 269.261L270.84 267.644L289.245 392.033Z" fill="#D8D8E7"/>
<path d="M212.486 392.033L219.706 393.184L241 269.261L230.896 267.644L212.486 392.033Z" fill="#D8D8E7"/>
<path d="M238.769 393.025L246.06 393.502L255.671 268.126L245.457 267.463L238.769 393.025Z" fill="#D8D8E7"/>
<path d="M295.451 260.352H204.805V269.124H295.451V260.352Z" fill="#C8C9DB"/>
<path d="M276.745 260.056H239.657L254.119 229.788C254.47 229.054 255.216 228.582 256.033 228.582H289.76C291.322 228.582 292.348 230.21 291.673 231.619L278.664 258.856C278.307 259.59 277.562 260.056 276.745 260.056Z" fill="#2698EF"/>
<path d="M248.84 258.39H217.93V260.062H248.84V258.39Z" fill="#2698EF"/>
<path d="M272.147 246.014C272.656 243.764 271.804 241.654 270.245 241.301C268.686 240.949 267.009 242.487 266.501 244.738C265.992 246.988 266.844 249.098 268.403 249.451C269.962 249.803 271.639 248.265 272.147 246.014Z" fill="#DCEFF8"/>
<path d="M332.681 393.371H178.627V403.162H332.681V393.371Z" fill="#E9E9F2"/>
<path d="M281.69 158.462C252.42 147.004 187.207 154.219 160.486 167.974L153.178 154.373C202.985 136.396 249.097 131.752 290.012 145.88L288.674 130.409L327.478 175.973L264.919 164.712L281.69 158.462Z" fill="#EECEAD"/>
<path d="M82.993 334.55C111.671 347.417 177.158 343.388 204.515 330.948L211.149 344.89C160.524 360.421 114.237 362.817 74.0623 346.715L74.6434 362.23L38.1035 314.83L100.049 329.123L82.993 334.55Z" fill="#EECEAD"/>
</g>
<defs>
<clipPath id="clip0_465_6352">
<rect width="466" height="423" fill="white"/>
</clipPath>
</defs>
</svg>
