<svg width="18" height="14" viewBox="0 0 18 14" fill="none" xmlns="http://www.w3.org/2000/svg">
<path d="M1.5 3.66663L11.5 3.66663M11.5 3.66663C11.5 5.04734 12.6193 6.16663 14 6.16663C15.3807 6.16663 16.5 5.04734 16.5 3.66663C16.5 2.28591 15.3807 1.16663 14 1.16663C12.6193 1.16663 11.5 2.28591 11.5 3.66663ZM6.5 10.3333L16.5 10.3333M6.5 10.3333C6.5 11.714 5.38071 12.8333 4 12.8333C2.61929 12.8333 1.5 11.714 1.5 10.3333C1.5 8.95258 2.61929 7.83329 4 7.83329C5.38071 7.83329 6.5 8.95258 6.5 10.3333Z" stroke="white" stroke-width="1.5" stroke-linecap="round" stroke-linejoin="round"/>
</svg>
