<svg width="17" height="18" viewBox="0 0 17 18" fill="none" xmlns="http://www.w3.org/2000/svg">
<path d="M5.16667 13.1667H11.8333M7.68141 1.30333L2.02949 5.69927C1.65168 5.99312 1.46278 6.14005 1.32669 6.32405C1.20614 6.48704 1.11633 6.67065 1.06169 6.86588C1 7.08627 1 7.32558 1 7.80421V13.8333C1 14.7667 1 15.2335 1.18166 15.59C1.34144 15.9036 1.59641 16.1585 1.91002 16.3183C2.26654 16.5 2.73325 16.5 3.66667 16.5H13.3333C14.2668 16.5 14.7335 16.5 15.09 16.3183C15.4036 16.1585 15.6586 15.9036 15.8183 15.59C16 15.2335 16 14.7667 16 13.8333V7.80421C16 7.32558 16 7.08627 15.9383 6.86588C15.8837 6.67065 15.7939 6.48704 15.6733 6.32405C15.5372 6.14005 15.3483 5.99312 14.9705 5.69927L9.31859 1.30333C9.02582 1.07562 8.87943 0.961766 8.71779 0.918001C8.57516 0.879384 8.42484 0.879384 8.28221 0.918001C8.12057 0.961766 7.97418 1.07562 7.68141 1.30333Z" stroke="#667085" stroke-width="1.66667" stroke-linecap="round" stroke-linejoin="round"/>
</svg>
