<svg width="41" height="40" viewBox="0 0 41 40" fill="none" xmlns="http://www.w3.org/2000/svg">
<path d="M32.1666 35H33.8505C35.4691 35 36.2784 35 36.7246 34.6625C37.1132 34.3685 37.3537 33.9191 37.3827 33.4327C37.4161 32.8743 36.9672 32.2009 36.0693 30.8541L31.052 23.3282C30.3102 22.2154 29.9392 21.659 29.4717 21.4651C29.0629 21.2956 28.6035 21.2956 28.1948 21.4651C27.7272 21.659 27.3563 22.2154 26.6144 23.3282L25.3741 25.1887M32.1666 35L19.3591 16.5003C18.6225 15.4364 18.2542 14.9044 17.7942 14.7174C17.3918 14.5538 16.9414 14.5538 16.5389 14.7174C16.0789 14.9044 15.7106 15.4364 14.9741 16.5003L5.06357 30.8154C4.1252 32.1709 3.65601 32.8486 3.68272 33.4122C3.70598 33.9031 3.94469 34.3587 4.33503 34.6572C4.78324 35 5.60752 35 7.25609 35H32.1666ZM35.4999 10C35.4999 12.7614 33.2613 15 30.4999 15C27.7385 15 25.4999 12.7614 25.4999 10C25.4999 7.23858 27.7385 5 30.4999 5C33.2613 5 35.4999 7.23858 35.4999 10Z" stroke="#8F8F8F" stroke-width="2" stroke-linecap="round" stroke-linejoin="round"/>
</svg>
