<svg width="64" height="64" viewBox="0 0 64 64" fill="none" xmlns="http://www.w3.org/2000/svg">
<g clip-path="url(#clip0_307_39718)">
<path d="M39.0609 7.42407H43.3134L46.7242 7.51267L49.0719 7.64556L48.9391 8.08852L48.1417 10.2148L47.743 11.3222L47.8316 11.4108L48.629 11.7652L49.5149 12.2524L50.3566 12.8283L50.9767 13.3155L51.5083 13.8028L51.9512 14.2015L52.3499 14.6444L52.8372 15.2203L53.3687 15.9734L53.9003 16.8593L54.4319 17.9667L54.8305 19.0741L55.1406 20.3144L55.2735 21.2004L55.3178 21.7319V23.3709L55.1849 24.5226L54.9634 25.5858L54.4762 27.0475L53.856 28.3322L53.3244 29.2181L52.7486 29.9711L52.3499 30.4584L51.7298 31.1229L51.1096 31.6987L50.4894 32.186L49.7364 32.7175L48.8062 33.2491L47.7873 33.7364L46.8128 34.0907L45.8383 34.3565L44.9081 34.5337L43.712 34.6666H42.1617L40.9656 34.5337L40.3455 34.4451L36.9789 36.0398L33.9667 37.4573L32.7264 38.0332L31.0432 38.8305L29.7143 39.4506L28.031 40.248L26.7907 40.8238L25.639 41.3554L25.2403 41.3111L22.4053 40.3809L20.1904 39.6721L17.4883 38.7862L15.2735 38.0774L12.4385 37.1472L12.3499 37.1029V12.1195L13.5459 11.5437L14.7419 11.0564L16.0708 10.5691L17.7541 10.0376L19.6146 9.55032L21.5636 9.10735L23.6899 8.70868L25.9933 8.3543L28.4739 8.04423L30.7774 7.82274L32.505 7.68985L35.6943 7.51267L36.9789 7.46837L39.0609 7.42407Z" fill="#FACD0C"/>
<path d="M36.7574 9.63892H40.9213L42.0288 9.68321L41.8959 10.3477L41.8516 10.4363H40.3455L39.1938 10.5249L37.9978 10.702L36.846 10.9678L35.6943 11.3222L34.4983 11.8095L33.3466 12.3853L32.4164 12.9612L31.6633 13.4927L31.4861 13.5813L31.5747 13.0941L31.7076 12.5182L31.6633 12.2081L31.4861 12.0309L31.3975 11.9866H31.0432L30.8217 12.1638L30.6445 12.7397L30.1572 14.733L29.9357 14.9545L29.3156 15.619L28.7397 16.2834L28.1639 17.0365L27.7209 17.7009L27.5437 18.0553H28.2082L29.2713 18.0996L29.227 18.2768L28.8726 18.6312L28.3854 19.2513L27.9424 19.9158L27.588 20.5802L27.2336 21.5105L27.1007 22.042V22.1749L27.6323 21.7762L28.4296 21.3333L29.5371 20.8017L30.6888 20.3587H30.7774L30.6445 21.3776L30.6002 21.9534V23.3266L30.6888 24.1683L30.9103 25.32L31.2203 26.4274L31.7076 27.6234L32.1949 28.5536L32.815 29.5282L33.2137 30.0154L33.701 30.5913L34.7198 31.6101L35.3399 32.0974L36.093 32.629L36.5803 32.939L36.536 33.3377L36.3588 34.0907L35.6943 34.4008L34.1882 35.021L33.6124 35.2868L29.8471 36.8814L27.1007 38.0332L26.6135 37.9003L18.1085 35.0653L16.4252 34.4894L16.3809 34.4451V12.5182L17.134 12.1195L18.1971 11.7209L19.7475 11.2779L21.3422 10.9235L22.7597 10.6577L24.9302 10.3477L27.4108 10.0819L29.6257 9.9047L32.0177 9.77181L34.3654 9.68321L36.7574 9.63892Z" fill="white"/>
<path d="M39.0609 7.42407H43.3134L46.7242 7.51267L49.072 7.64556L48.9391 8.08852L48.1417 10.2148L47.743 11.3222L47.6545 11.3665L46.6799 11.0121L45.4839 10.702L44.3322 10.5248L43.8892 10.4806L41.9845 10.4363L41.8516 10.3477L42.0288 9.68321H36.7574L34.3654 9.72751L31.1761 9.8604L29.0498 9.99329L26.5249 10.2148L24.2658 10.4806L22.2724 10.7906L20.3233 11.1893L19.083 11.4994L17.9756 11.8538L17.0454 12.2081L16.4252 12.5182V34.4451L27.0122 37.9889L27.4108 37.856L32.5493 35.6854L34.1439 35.021L34.7198 34.7552L36.3145 34.0907L36.5803 32.9833L36.8017 33.0719L37.7763 33.5592L38.7951 33.9578L39.8139 34.2679L40.3455 34.4008L40.1683 34.5337L38.928 35.1096L37.6434 35.7297L36.4031 36.3056L34.7198 37.1029L33.3909 37.7231L31.7076 38.5204L30.4673 39.0963L28.784 39.8936L25.949 41.2225L25.639 41.3554L25.2403 41.3111L22.4053 40.3809L20.1904 39.6721L17.4883 38.7862L15.2735 38.0774L12.4385 37.1472L12.3499 37.1029V12.1195L13.5459 11.5437L14.7419 11.0564L16.0708 10.5691L17.7541 10.0376L19.6146 9.55032L21.5636 9.10735L23.6899 8.70868L25.9933 8.3543L28.4739 8.04423L30.7774 7.82274L32.505 7.68985L35.6943 7.51267L36.9789 7.46837L39.0609 7.42407Z" fill="#0045BA"/>
<path d="M24.1329 10.8792L24.4429 10.9234L24.6644 11.1449L24.7087 11.2335V11.5879L23.7785 15.3531L23.557 16.2834V16.4605L25.196 16.7263L26.6578 16.9035L28.1196 17.0364L27.8981 17.4351L27.5437 18.0109V18.0552H28.2082L29.2713 18.0995L29.227 18.2767L28.8726 18.6311L28.3854 19.2512L27.9424 19.9157L27.588 20.5801L27.2336 21.5104L27.1007 22.0419V22.1748L27.6323 21.7762L28.4297 21.3332L29.5371 20.8016L30.6888 20.3587H30.7774L30.6445 21.3775L30.6002 21.9533V23.3265L30.6888 24.1682L30.9103 25.3199L31.2204 26.4273L31.7076 27.6233L32.1949 28.5536L32.815 29.5281L33.1694 29.9711L33.0808 30.0597L31.7962 30.3254L30.5559 30.5026L29.4485 30.5912L28.5625 30.6355H27.2779L27.1007 31.4772L26.392 34.3564L26.2148 34.6222L26.0376 34.7108H25.7275L25.4618 34.5336L25.3732 34.3564V34.0021L26.2148 30.5912L24.4872 30.4583L22.4939 30.1925L20.5891 29.8382L20.2347 29.7939L19.3488 33.3819L19.1716 33.6034L19.083 33.6477H18.6401L18.4186 33.4705L18.33 33.249L18.3743 32.8947L19.2159 29.4838L18.7287 29.3952L17.4883 29.0408L17.2669 28.9079L17.134 28.6422L17.1783 28.2878L17.3998 28.0663L17.4883 28.022H17.8427L19.083 28.3764L19.4374 28.465L19.6589 27.6676L20.8106 22.9722L20.8549 22.8393L20.5005 22.795L18.9058 22.352L18.5072 22.1748L18.3743 21.9976L18.33 21.6876L18.4629 21.4218L18.6401 21.2889L18.9058 21.2446L20.5448 21.6876L21.1207 21.8205L21.2093 21.3332L22.1838 17.3908L22.2281 17.2579L21.6965 17.1693L20.1019 16.7706L19.2602 16.5048L19.0387 16.3277L18.9501 15.9733L19.083 15.6632L19.2602 15.5303H19.7032L21.1207 15.929L22.4939 16.2391L22.5825 15.7518L23.6899 11.2778L23.8228 11.0563L23.9557 10.9234L24.1329 10.8792Z" fill="#0045BA"/>
<path d="M42.2503 39.7163H42.7818L43.0033 39.8935L43.0476 39.9821V40.3808L42.8704 40.9123L42.4717 41.3553L41.9845 41.7983L41.2757 42.3298L40.2569 43.0386L39.1495 43.7473L38.3078 44.2789L37.0675 45.0319L36.093 45.6078L34.8084 46.3608L32.815 47.5125L31.7962 48.0884L30.6888 48.7086L29.4042 49.4173L28.3411 49.9932L27.5437 50.4361L26.5692 50.9677L26.2148 50.9234L16.7796 47.9112L14.299 47.1139L11.5526 46.2279L9.02767 45.4306L8.85048 45.342L8.76189 44.899L8.71759 44.5004V43.1272L8.89478 42.4184L9.11626 42.1083L9.38204 41.9754H9.73642L11.0653 42.4627L23.1583 47.0253L24.8859 47.6897L25.949 48.0884L26.7907 47.6897L27.6323 47.2468L28.784 46.6266L30.3344 45.8293L31.1761 45.3863L32.3721 44.7661L33.2137 44.3232L35.4286 43.1715L36.2702 42.7285L37.3776 42.1526L38.2193 41.7097L40.5227 40.5137L41.3643 40.0707L41.9402 39.8049L42.2503 39.7163Z" fill="#0045BA"/>
<path d="M26.6135 51.7207H27.8538L28.6068 51.8979L29.3599 52.208L29.8471 52.518L30.2901 52.8724L30.6888 53.2268L31.0874 53.7141L31.5304 54.3785L31.9734 55.3087L32.2392 56.1947L32.3721 56.9477L32.4164 57.435V58.2323L32.3278 59.074L32.1063 60.0042L31.8405 60.713L31.4861 61.4217L31.0874 61.9976L30.6002 62.5734L30.1129 63.0164L29.4485 63.4594L28.6511 63.8137L27.8981 63.9909L27.0564 64.0352L26.3477 63.9466L25.5946 63.7251L24.8859 63.3708L24.31 62.9721L23.7342 62.4405L23.2469 61.8204L22.8925 61.2445L22.5825 60.6244L22.2724 59.6941L22.0952 58.7639L22.0509 58.3209V57.3907L22.1838 56.4162L22.4053 55.5745L22.6711 54.9101L23.0697 54.157L23.5127 53.5369L24.0443 52.961L24.753 52.4295L25.2846 52.1194L25.9933 51.8536L26.6135 51.7207Z" fill="#0045BA"/>
<path d="M16.2038 49.1516H16.6025L17.3112 49.2402L18.0199 49.4617L18.7287 49.8161L19.3046 50.2147L19.8361 50.702L20.3234 51.2779L20.8106 52.0752L21.1207 52.7839L21.3865 53.6256L21.5194 54.3786L21.5637 54.8216V55.8404L21.4308 56.7707L21.2093 57.6123L20.9435 58.2767L20.5449 59.0298L20.1019 59.65L19.7032 60.0929L19.3489 60.403L18.7287 60.846L18.1085 61.156L17.4441 61.3775L16.9568 61.4661H15.8051L15.0078 61.2889L14.299 60.9789L13.7675 60.6688L13.2802 60.2701L12.66 59.65L12.35 59.207L11.9513 58.5425L11.6412 57.8338L11.4197 57.125L11.2868 56.5049L11.1982 55.6632V54.9545L11.2868 54.1129L11.5083 53.1826L11.7741 52.4739L12.2614 51.5436L12.7043 50.9678L13.1916 50.4362L13.8118 49.949L14.5205 49.5503L15.0964 49.3288L15.7165 49.1959L16.2038 49.1516Z" fill="#0045BA"/>
<path d="M36.536 46.6267H37.5548L38.2193 46.7596L38.9723 47.0254L39.6368 47.4241L40.0797 47.7784L40.5227 48.1771L40.9657 48.7087L41.4086 49.4174L41.763 50.1705L41.9845 50.8349L42.1617 51.6322L42.206 51.9866V53.5813L42.0731 54.3786L41.8516 55.176L41.4972 55.9733L41.2314 56.4606L40.7885 57.0808L40.2569 57.6566L39.6368 58.1439L39.0166 58.4982L38.485 58.7197L37.8206 58.8969L37.5105 58.9412H36.6246L35.7386 58.764L35.0742 58.4982L34.454 58.1439L33.9668 57.7452L33.3466 57.125L32.8151 56.372L32.3278 55.3532L32.062 54.5115L31.9291 53.8028L31.8848 53.4041V52.1638L32.0177 51.2779L32.1949 50.6134L32.4607 49.9047L32.9037 49.063L33.4352 48.3543L34.0554 47.7341L34.5426 47.3798L35.2514 46.9811L36.0487 46.7153L36.536 46.6267Z" fill="#0045BA"/>
<path d="M32.7264 -0.0178223H36.3588L38.5736 0.0707713L40.6556 0.203662L43.0476 0.425146L44.155 0.558036L44.1993 0.64663L41.3643 6.31662L39.0166 6.49381L39.1938 5.69646L39.7253 3.61451L38.9723 3.57022L37.7763 3.48162L36.8017 3.43733H32.7707L30.6445 3.52592L27.6766 3.7474L25.0188 4.01319L21.8737 4.41186L21.2979 4.50045H21.0321V7.73412L19.4374 8.26568L18.4629 8.57575H18.3743L18.4186 8.26568L19.526 4.27897L20.1018 2.24131L20.279 2.10842L21.475 1.66546L22.7596 1.26678L24.4429 0.868113L25.8161 0.602333L27.6766 0.336552L29.4042 0.159365L31.4418 0.0264745L32.7264 -0.0178223Z" fill="#0045BA"/>
<path d="M27.1451 53.6255L27.7652 53.6698L28.3854 53.847L28.9613 54.157L29.4042 54.5114L29.8029 54.9101L30.2016 55.5303L30.5116 56.1947L30.6888 56.8149L30.7774 57.435V58.2767L30.6445 59.074L30.4231 59.7384L30.113 60.3586L29.7143 60.8902L29.227 61.3774L28.6069 61.7761L27.9867 61.9976L27.4552 62.0862H27.0122L26.3035 61.9533L25.8162 61.7318L25.3732 61.466L24.9303 61.0673L24.5316 60.6244L24.1772 60.0042L23.9114 59.3841L23.7342 58.631L23.6899 58.2324V57.4793L23.8228 56.6377L24.0443 55.9732L24.443 55.2202L24.8417 54.7329L25.196 54.3785L25.8162 53.9799L26.3477 53.7584L26.7021 53.6698L27.1451 53.6255Z" fill="white"/>
<path d="M16.1151 51.1006H16.6467L17.3111 51.2335L17.9313 51.4993L18.4186 51.8536L18.6843 52.0751L19.083 52.5624L19.4817 53.2268L19.7475 53.9356L19.8803 54.5114L19.9246 54.9101V55.796L19.7918 56.5491L19.5703 57.2135L19.2159 57.878L18.7729 58.4539L18.4629 58.7639L18.0199 59.074L17.3997 59.3841L16.9125 59.517L16.3366 59.5613L15.6722 59.4727L15.052 59.2512L14.4318 58.8525L13.9446 58.4096L13.5016 57.7894L13.1472 57.0807L12.9258 56.3276L12.8372 55.7075V54.9544L12.97 54.1128L13.1915 53.4483L13.5016 52.8282L13.9003 52.2966L14.3875 51.8093L15.0077 51.4107L15.5836 51.1892L16.1151 51.1006Z" fill="white"/>
<path d="M36.6689 48.5757H37.4219L38.1307 48.7529L38.7508 49.0629L39.1938 49.4173L39.6368 49.8603L40.0354 50.4804L40.3012 51.0563L40.5227 51.8093L40.6113 52.5181V53.0497L40.4784 53.9356L40.2126 54.7329L39.8582 55.3974L39.5039 55.8404L39.0609 56.2833L38.4407 56.682L37.8649 56.9035L37.4219 56.9921H36.6689L35.9601 56.8149L35.4286 56.5491L34.897 56.1504L34.5869 55.8404L34.2326 55.3531L33.8339 54.6L33.6124 53.847L33.5238 53.3597V52.208L33.701 51.3664L33.9225 50.7905L34.2768 50.1261L34.7641 49.5502L35.1628 49.1958L35.65 48.8858L36.2259 48.6643L36.6689 48.5757Z" fill="white"/>
<path d="M21.8295 23.105L22.2724 23.1493L23.7342 23.4151L25.3289 23.6365L26.7464 23.7694L27.8981 23.858L27.4994 25.5413L26.5249 29.4837L26.4363 29.5723L24.7087 29.4394L22.9812 29.2179L21.2093 28.9079L20.5005 28.7307L20.5448 28.332L21.2536 25.497L21.8295 23.105Z" fill="white"/>
<path d="M49.6035 21.2004L49.6921 21.3776L49.8693 22.3079L49.9579 23.1938V24.6113L49.825 25.5415L49.6035 26.3389L49.2491 27.0476L48.9391 27.5349L48.3632 28.1107L47.8759 28.4208L47.2115 28.7309L46.4142 28.9524L45.4839 29.0853H43.5349L42.0731 28.9081L40.7442 28.6423L40.0797 28.4651L40.2569 28.3765L41.4529 28.0664L42.5603 27.6678L43.4463 27.2691L44.4651 26.7375L45.351 26.1617L46.0598 25.6301L46.547 25.2314L47.2558 24.567L47.7874 23.9911L48.2746 23.371L48.5847 22.928L49.1163 22.0864L49.6035 21.2004Z" fill="black"/>
<path d="M23.2469 17.4795L23.8671 17.5681L25.639 17.8339L27.4551 18.0111L27.5437 18.0554H28.2082L29.2713 18.0996L29.227 18.2768L28.8726 18.6312L28.3854 19.2514L27.9424 19.9158L27.588 20.5803L27.2337 21.5105L27.1008 22.0421V22.175L27.6323 21.7763L28.4297 21.3333L28.5183 21.3776L28.1639 22.7951L28.1196 22.8394L26.5249 22.7508L24.5758 22.5293L22.4939 22.175L22.1395 22.0864L22.1838 21.6877L23.1141 17.9225L23.2026 17.5238L23.2469 17.4795Z" fill="white"/>
<path d="M37.5991 36.97H38.1307L38.5737 37.1472L39.0166 37.5015L39.4153 37.9888L39.7697 38.609L39.9026 38.8747V38.9633H39.3267L38.8837 39.1405L37.732 39.7607L37.1119 40.0707H36.536L36.3588 40.4251L36.0044 40.7352L35.6058 40.8681H35.2957L35.1185 40.8238L34.9413 41.1782L34.5426 41.5325L33.8339 41.8869L33.6567 41.9312L33.0809 41.9755L32.8151 42.3299L32.4164 42.6843L31.4419 43.2158L30.866 43.3044L30.6888 43.5702L30.4673 43.7474L29.4042 44.3232L28.8727 44.589L28.3854 44.7219H27.9424L27.4995 44.5447L27.1894 44.1903L27.0122 43.7917L26.9679 43.6145V43.1272L27.1894 42.6843L27.5438 42.4185L27.9424 42.2856L28.3854 42.3299L28.7398 42.5071L29.0498 42.8614L29.4485 43.6145L29.6257 43.5702L30.2016 43.2601L30.3345 43.0386L30.2902 42.7729L29.8029 41.8869V41.754L29.9801 41.6654H30.2459L30.4673 41.9312L30.8217 42.5514V42.64L30.9546 42.6843H31.2647L32.2392 42.1527L32.4164 41.9755L32.4607 41.8426L31.7962 41.7097H31.2204L30.9989 41.2225L31.4862 40.4694L31.7519 40.1593L32.2835 39.8936L32.505 39.8493H33.0809L33.4352 39.8936L33.4795 39.9379V40.6909L33.3466 41.3996L33.3023 41.4882L33.8782 41.2668L34.4541 40.9124L34.5426 40.7795L34.4983 40.3808L34.2326 39.805L34.1883 39.3177L34.3212 38.919L34.6312 38.5647L34.9856 38.3875L35.3843 38.3432L35.783 38.4761L36.1373 38.7418L36.5803 39.4063L36.7575 39.5392L37.0676 39.4949L38.0864 38.9633L38.9723 38.4761L38.928 38.2989L38.5294 37.8559L37.9978 37.5901H37.5991L37.1562 37.8116L36.8904 38.166L36.8461 38.3432H36.7575L36.6246 38.0331L36.6689 37.6344L37.0233 37.2358L37.4662 37.0143L37.5991 36.97Z" fill="#0045BA"/>
<path d="M29.227 23.8582H30.6445L30.866 25.1428L31.176 26.2945L31.6633 27.5348L32.1949 28.5536L32.5049 29.0409V29.1295L31.4418 29.351L29.98 29.5281L29.3156 29.5724H27.5437L27.7209 28.7751L28.9169 23.9025L29.227 23.8582Z" fill="white"/>
<path d="M35.9158 19.1184H36.403L36.9346 19.2513L37.4662 19.5171L37.8648 19.8272L38.1306 20.0486L38.5293 20.5802L38.8394 21.2004L38.928 21.5547V22.2635L38.7508 22.6622L38.4407 23.0165L38.042 23.1937L37.5105 23.238L36.8903 23.1051L36.3588 22.8393L35.9601 22.5293L35.6057 22.2192L35.2513 21.7319L34.9856 21.2004L34.8527 20.7131V20.1372L34.9856 19.7386L35.3399 19.3399L35.6943 19.1627L35.9158 19.1184Z" fill="black"/>
<path d="M42.6932 14.6001H43.0919L43.6235 14.733L44.3322 15.0874L44.8638 15.5746L45.2182 15.9733L45.5725 16.682L45.6611 16.9921V17.7452L45.4839 18.1881L45.1739 18.4982L44.7752 18.6754H43.9778L43.4463 18.4982L42.959 18.2324L42.3832 17.7452L41.9845 17.2136L41.7187 16.682L41.5858 16.1505V15.6632L41.763 15.176L42.0731 14.8216L42.4718 14.6444L42.6932 14.6001Z" fill="black"/>
<path d="M18.9058 39.938L19.2159 40.0266L19.3045 40.1152V40.4253L18.6401 42.4629V42.773L18.8173 42.9502L20.8549 43.6146L20.9435 43.3045V42.773L20.7663 42.2857L20.5005 42.0642L20.279 41.9756H19.7032L19.4817 42.0642L19.5703 41.7542L19.7918 41.5327L20.0576 41.4441L20.5005 41.4884L20.9435 41.6656L21.2536 41.9313L21.4308 42.2857L21.5194 42.6844V43.1717L21.4308 43.7475L21.3865 43.8361L21.7851 43.9247H22.1838L22.361 43.6589L23.114 41.3555L23.2026 41.3112L23.4684 41.4441L23.557 41.6656L23.1583 42.9502L22.804 43.969L22.5382 44.3234L22.1838 44.5006H21.8737L19.7032 43.7918L18.5072 43.3931L18.1528 43.0831L18.0642 42.773L18.1085 42.3743L18.7287 40.4695L18.9058 39.938Z" fill="#0045BA"/>
<path d="M11.9955 38.8306H12.3499L12.7486 38.9635L13.0144 39.1849L13.1916 39.495L13.2359 39.6722V40.0709L13.0144 40.8239L12.9701 41.0454L13.8117 41.3112H14.0775L14.2104 41.1783L14.4319 40.6024L14.6091 40.0709L14.9634 40.2038L15.0077 40.2924L14.9634 40.691L14.6976 41.3998L14.3876 41.7542L14.2104 41.8427H13.7231L12.1284 41.3112L11.5969 41.0454L11.2425 40.7353L11.0653 40.381V39.8494L11.2425 39.4064L11.5083 39.0521L11.8184 38.8749L11.9955 38.8306Z" fill="#0045BA"/>
<path d="M15.938 40.5137L16.2481 40.6023L16.381 40.7795L16.2481 41.311L16.0266 42.0641L16.5138 42.1969L16.7796 42.2855L17.0897 42.2412L17.2669 41.8869L17.5327 41.0452L17.7985 41.0895L17.9756 41.311L17.8428 41.8426L17.6213 42.3741L17.3112 42.7285L17.0897 42.8171H16.691L15.8937 42.5513H15.8051L15.6279 42.9943L15.4064 43.1715L15.1849 43.2601H14.8749L14.5205 43.0829L14.4762 42.8171L14.5205 42.7285L15.0521 42.7728L15.2292 42.5956L15.495 41.8869L15.938 40.5137Z" fill="#0045BA"/>
<path d="M30.6888 20.3586H30.7774L30.6445 21.3775L30.5559 22.795L30.2902 22.8393H29.1827L29.67 20.8459L29.8472 20.6687L30.6888 20.3586Z" fill="white"/>
<path d="M31.0432 11.9424H31.3975L31.619 12.0753L31.7519 12.3854L31.6633 12.8726L31.4861 13.6257L30.866 14.1129L30.2901 14.6445L30.1572 14.6888L30.2458 14.1572L30.7331 12.2525L30.9546 11.9867L31.0432 11.9424Z" fill="#0045BA"/>
<path d="M27.9424 42.7729L28.2968 42.8172L28.5626 43.0387L28.9169 43.6146L29.0498 43.8361L29.0055 43.969L28.5183 44.1904L28.3854 44.2347H27.9867L27.7209 44.0576L27.4994 43.7475L27.4551 43.6146V43.1716L27.6323 42.9058L27.9424 42.7729Z" fill="white"/>
<path d="M24.1329 41.6655L24.3986 41.7098L24.5315 41.8427L24.4872 42.2414L23.557 45.0321L23.2912 44.9435L23.1583 44.8106L23.2026 44.4562L24.0886 41.7541L24.1329 41.6655Z" fill="#0045BA"/>
<path d="M35.1185 38.8748H35.4729L35.783 39.0962L36.0044 39.4506L36.0487 39.5835V39.9822L35.8716 40.248L35.6944 40.3365H35.2514L34.9856 40.1594L34.7198 39.7164L34.6755 39.3177L34.8084 39.0519L35.1185 38.8748Z" fill="white"/>
<path d="M29.8471 17.125H30.6888L30.4673 17.3022L29.8471 17.7452L29.3156 18.1881L29.2713 18.0995H28.2082L27.588 18.0552L27.8095 17.878L28.4297 17.5237L29.1827 17.2579L29.8471 17.125Z" fill="#0045BA"/>
<path d="M12.0399 39.2734L12.4385 39.3177L12.7043 39.5392L12.7486 39.6721V40.1151L12.5271 40.8681L12.4385 40.9124L11.907 40.6909L11.5969 40.4252L11.5083 40.0708L11.5969 39.7164L11.7741 39.4506L12.0399 39.2734Z" fill="white"/>
<path d="M32.7264 40.248H33.0365L32.9479 40.9125L32.815 41.3998L32.7264 41.4441L31.619 41.2226V41.0897L31.8848 40.691L32.2835 40.3809L32.7264 40.248Z" fill="white"/>
<path d="M27.4551 41.3555L27.7652 41.3998L27.8538 41.5327L27.8095 41.8427L27.7209 41.9313H27.4108L27.278 41.7984V41.5327L27.4551 41.3555Z" fill="#0045BA"/>
<path d="M30.7774 43.9246H31.0432L31.2204 44.1017V44.3232L31.0432 44.5004L30.7331 44.4561L30.6445 44.3675V44.0575L30.7774 43.9246Z" fill="#0045BA"/>
<path d="M38.8837 39.4949H39.1052L39.2824 39.6721L39.2381 39.9821L39.1052 40.0707H38.8394L38.7065 39.9378V39.6721L38.8837 39.4949Z" fill="#0045BA"/>
<path d="M31.3532 43.6145H31.6633L31.7962 43.7474V44.0132L31.6633 44.1461L31.4418 44.1904L31.2203 44.0132L31.2646 43.7031L31.3532 43.6145Z" fill="#0045BA"/>
<path d="M26.835 41.7097L27.1008 41.754L27.2337 41.9755L27.1451 42.197L27.0565 42.2856H26.7907L26.6578 42.1527L26.6135 41.9312L26.835 41.7097Z" fill="#0045BA"/>
<path d="M12.3056 37.9001L12.6157 37.9444L12.7043 38.0773L12.66 38.3431L12.4828 38.476L12.2613 38.4317L12.1284 38.2545L12.1727 37.9887L12.3056 37.9001Z" fill="#0045BA"/>
<path d="M12.9701 38.1218L13.2802 38.1661L13.3688 38.299V38.5205L13.2359 38.6534H12.9258L12.7929 38.4762L12.8372 38.2104L12.9701 38.1218Z" fill="#0045BA"/>
<path d="M13.3688 42.1084L13.6789 42.1527L13.7674 42.3299L13.7232 42.5514L13.6346 42.64H13.3245L13.1916 42.5071L13.2359 42.197L13.3688 42.1084Z" fill="#0045BA"/>
<path d="M16.6024 43.1272L16.8682 43.2158L16.9125 43.2601V43.5702L16.7353 43.7031L16.4695 43.6588L16.3809 43.5259L16.4252 43.2158L16.6024 43.1272Z" fill="#0045BA"/>
<path d="M19.7032 44.146L19.9247 44.1903L20.0576 44.3232L20.0133 44.6333L19.8804 44.7219L19.6146 44.6776L19.526 44.589V44.2789L19.7032 44.146Z" fill="#0045BA"/>
<path d="M13.9446 42.3298H14.2547L14.3433 42.4184V42.7285L14.2104 42.8614L13.9003 42.8171L13.8117 42.6842L13.856 42.3741L13.9446 42.3298Z" fill="#0045BA"/>
</g>
<defs>
<clipPath id="clip0_307_39718">
<rect width="64" height="64" fill="white"/>
</clipPath>
</defs>
</svg>
