<svg width="274" height="274" viewBox="0 0 274 274" fill="none" xmlns="http://www.w3.org/2000/svg">
<g clip-path="url(#clip0_131_6321)">
<path d="M243.701 212.556H244.241C227.502 212.556 213.934 201.28 213.934 187.369C213.934 180.415 217.329 174.122 222.811 169.565C223.568 168.935 224.365 168.337 225.201 167.781C223.672 167.113 222.469 166.11 221.592 164.775C220.447 163.033 220.154 161.123 220.715 159.038C221.28 156.955 222.491 155.448 224.357 154.517C226.223 153.588 228.28 153.424 230.533 154.032C232.782 154.637 234.481 155.813 235.626 157.555C236.722 159.216 237.04 161.03 236.574 163.003C239.024 162.471 241.594 162.186 244.244 162.186H243.704C252.069 162.186 259.645 159.369 265.125 154.81C270.608 150.253 274.003 143.957 274.003 137C274.003 127.484 267.654 119.201 258.283 114.918C260.407 118.541 260.81 122.799 259.492 127.692C258.862 130.027 257.826 132.03 256.379 133.69C254.935 135.356 252.916 136.91 250.326 138.354L244.255 141.562C242.52 142.513 241.197 143.614 240.287 144.861C240.104 145.116 239.923 145.387 239.747 145.678C238.298 148.102 235.374 149.223 232.648 148.486C228.716 147.428 226.705 142.981 228.623 139.387C229.031 138.614 229.464 137.926 229.913 137.315C231.483 135.189 233.544 133.534 236.095 132.347C238.649 131.164 240.662 129.994 242.137 128.835C243.608 127.679 244.581 126.226 245.052 124.481C246.197 120.231 244.942 117.614 241.282 116.631C239.591 116.176 238.059 116.425 236.687 117.384C236.229 117.702 235.81 118.086 235.437 118.532C233.834 120.434 231.336 121.33 228.933 120.683L226.987 120.157C222.387 118.919 220.721 113.283 223.839 109.759C218.759 107.937 214.397 104.989 211.213 101.298C211.27 102.517 211.298 103.742 211.298 104.975C211.298 124.034 204.44 141.485 193.047 155.002L199.598 167.23C202.371 172.404 200.423 178.845 195.25 181.615L193.425 182.596L216.742 226.116C219.512 231.292 217.562 237.733 212.391 240.506L203.187 245.433C198.014 248.208 191.57 246.258 188.8 241.084L165.485 197.557L163.66 198.535C158.487 201.305 152.045 199.357 149.275 194.187L142.809 182.117C139.789 182.473 136.718 182.659 133.605 182.659C90.7022 182.659 55.9262 147.878 55.9262 104.972C55.9262 104.578 55.9289 104.183 55.9344 103.791C55.6905 104.01 55.4439 104.219 55.1946 104.427C50.7503 108.123 44.9333 110.674 38.4395 111.51C38.8587 119.823 46.1032 129.632 49.1282 133.391C49.6844 134.085 49.2707 135.118 48.3857 135.235L19.591 139.03C19.1252 139.091 18.6704 138.863 18.4457 138.452C17.1634 136.118 13.2123 127.87 13.8178 115.858C12.0341 116.823 10.3764 117.938 8.8776 119.185C3.39486 123.749 0 130.046 0 137C0 149.138 10.3298 159.268 24.0819 161.652C26.4109 158.854 29.7811 156.569 34.187 154.788C40.2122 152.358 45.4429 151.867 49.879 153.314C54.3095 154.763 57.5674 158.057 59.6361 163.189C60.5403 165.433 60.9157 167.655 60.765 169.853C60.6417 171.68 60.1512 173.686 59.3046 175.872C61.4336 179.319 62.6364 183.227 62.6364 187.369C62.6364 192.452 60.828 197.187 57.7044 201.143C57.9976 201.212 58.2853 201.297 58.5757 201.401C60.5403 202.1 61.924 203.45 62.7296 205.451C63.5351 207.451 63.4776 209.383 62.5487 211.251C61.6199 213.12 60.0745 214.49 57.9154 215.359C55.7508 216.233 53.6903 216.318 51.7257 215.616C49.7584 214.915 48.3747 213.564 47.5691 211.564C47.2732 210.832 47.0951 210.109 47.0349 209.394C42.6837 211.407 37.6695 212.55 32.3375 212.55H30.3044C21.9392 212.55 14.3631 215.372 8.88308 219.929C3.39486 224.494 0 230.79 0 237.744C0 251.65 13.5685 262.928 30.2989 262.928H243.698C252.064 262.928 259.64 260.111 265.12 255.552C270.602 250.995 273.997 244.701 273.997 237.747C273.997 223.836 260.429 212.558 243.698 212.558L243.701 212.556ZM129.347 196.039L122.977 233.859C122.875 234.459 122.319 234.876 121.711 234.802C117.48 234.292 101.829 231.925 92.5737 224.14C83.3481 216.383 80.0436 210.147 79.2819 208.514C79.1614 208.254 79.1477 207.955 79.2353 207.681L87.5293 182.687C87.765 181.983 88.6034 181.684 89.2281 182.089C92.0037 183.879 99.1935 188.213 107.761 191.068C116.499 193.984 125.081 194.587 128.268 194.713C128.953 194.74 129.462 195.362 129.347 196.039ZM243.701 11.0723H30.2989C21.9337 11.0723 14.3576 13.889 8.8776 18.4484C3.39486 23.0078 0 29.2988 0 36.2557C0 50.1666 13.5685 61.4445 30.2989 61.4445H33.7705C46.0649 61.4445 56.6468 67.5328 61.4007 76.2789C72.8183 47.5856 100.84 27.2986 133.605 27.2986C166.37 27.2986 196.253 48.9446 206.897 79.1504C208.372 75.2048 210.986 71.6729 214.416 68.8233C215.589 67.8479 216.855 66.9519 218.205 66.1518C217.134 66.3354 216.159 66.1874 215.282 65.7052C214.317 65.1791 213.712 64.3626 213.46 63.2556C213.205 62.1487 213.399 61.1486 214.035 60.2553C214.671 59.3621 215.589 58.7785 216.786 58.5045C217.983 58.2305 219.063 58.3565 220.025 58.8853C220.989 59.4114 221.598 60.2279 221.85 61.3349C222.102 62.4419 221.91 63.442 221.274 64.3352C221.192 64.4503 221.104 64.5599 221.017 64.664C225.398 62.6117 230.459 61.4445 235.843 61.4445H243.704C252.069 61.4445 259.645 58.6223 265.125 54.0657C270.608 49.5091 274.003 43.2125 274.003 36.2557C274.003 22.3502 260.434 11.0723 243.704 11.0723H243.701ZM223.787 42.6618C223.527 43.7934 222.97 45.0127 222.121 46.3252L220.091 49.3172C219.518 50.1886 219.173 51.027 219.06 51.8326C219.038 51.997 219.019 52.1668 219.011 52.3422C218.975 53.0875 218.685 53.767 218.222 54.3068C217.762 54.8466 217.129 55.2384 216.402 55.4055C214.312 55.8823 212.279 54.3095 212.284 52.1641C212.284 51.7065 212.314 51.2791 212.375 50.8845C212.577 49.5063 213.128 48.2295 214.021 47.0458C214.917 45.8676 215.564 44.8237 215.964 43.9222C216.364 43.0207 216.46 42.1056 216.246 41.1767C215.728 38.9217 214.498 38.012 212.553 38.4559C211.654 38.6614 211.005 39.1573 210.602 39.941C210.47 40.2013 210.369 40.4835 210.303 40.7849C210.029 42.0645 209.087 43.0947 207.81 43.3879L206.777 43.6235C204.289 44.1935 202.094 41.8973 202.779 39.4423C203.031 38.5353 203.434 37.6914 203.982 36.9105C205.456 34.8172 207.87 33.3896 211.218 32.6224C214.553 31.858 217.315 32.0388 219.499 33.1622C221.682 34.2829 223.099 36.2639 223.751 39.1053C224.033 40.3492 224.047 41.5329 223.784 42.6618H223.787Z" fill="url(#paint0_linear_131_6321)"/>
<path d="M232.78 101.862C241.871 101.862 249.241 94.492 249.241 85.4003C249.241 76.3087 241.871 68.9384 232.78 68.9384C223.688 68.9384 216.318 76.3087 216.318 85.4003C216.318 94.492 223.688 101.862 232.78 101.862Z" fill="url(#paint1_linear_131_6321)"/>
<path d="M51.2326 195.737C48.2816 200.165 43.2428 203.081 37.5271 203.081C28.4358 203.081 21.0652 195.71 21.0652 186.616C21.0652 182.92 22.2845 179.508 24.345 176.76C25.7999 177.357 27.4987 177.431 29.1509 176.763L31.0223 176.007C33.3294 175.078 34.7871 172.858 34.9186 170.373V170.365C35.768 170.231 36.6393 170.159 37.5244 170.159C40.9384 170.159 44.1113 171.201 46.7417 172.982C46.7061 173.505 46.6129 174.031 46.4732 174.563C45.9937 176.377 45.0922 178.519 43.7688 181.004C42.4427 183.487 41.796 186.051 41.8262 188.696C41.8316 189.452 41.9056 190.263 42.0426 191.126C42.6783 195.148 46.9609 197.488 50.7394 195.965C50.9093 195.896 51.0709 195.822 51.2326 195.743V195.737Z" fill="url(#paint2_linear_131_6321)"/>
<path d="M186.654 104.98C186.654 134.276 162.904 158.027 133.608 158.027C104.312 158.027 80.5642 134.276 80.5642 104.98C80.5642 75.6843 104.309 51.9367 133.608 51.9367C162.907 51.9367 186.654 75.6815 186.654 104.98Z" fill="url(#paint3_linear_131_6321)"/>
<path d="M133.608 27.2986C90.7048 27.2986 55.926 62.0774 55.926 104.98C55.926 147.883 90.7048 182.668 133.608 182.668C136.72 182.668 139.792 182.481 142.809 182.125C162.907 179.758 180.659 169.713 193.047 155.007C204.44 141.494 211.298 124.037 211.298 104.98C211.298 62.0774 176.516 27.2986 133.608 27.2986ZM133.608 158.027C104.312 158.027 80.5641 134.276 80.5641 104.98C80.5641 75.6843 104.309 51.9367 133.608 51.9367C162.907 51.9367 186.654 75.6815 186.654 104.98C186.654 134.279 162.904 158.027 133.608 158.027Z" fill="url(#paint4_linear_131_6321)"/>
<path d="M212.391 240.512L203.185 245.441C198.011 248.214 191.57 246.266 188.8 241.09L165.485 197.565L193.422 182.602L216.739 226.124C219.509 231.3 217.561 237.742 212.388 240.512H212.391Z" fill="url(#paint5_linear_131_6321)"/>
<path d="M195.249 181.621L193.422 182.602L165.485 197.565L163.657 198.546C158.484 201.316 152.042 199.368 149.272 194.195L142.809 182.128C147.258 181.602 151.593 180.703 155.782 179.456C166.148 176.377 175.612 171.187 183.667 164.389C187.054 161.534 190.191 158.397 193.046 155.007L199.595 167.236C202.368 172.409 200.42 178.851 195.249 181.621Z" fill="url(#paint6_linear_131_6321)"/>
<path d="M117.965 100.462C120.635 100.462 122.799 97.3572 122.799 93.5272C122.799 89.6971 120.635 86.5922 117.965 86.5922C115.296 86.5922 113.132 89.6971 113.132 93.5272C113.132 97.3572 115.296 100.462 117.965 100.462Z" fill="url(#paint7_linear_131_6321)"/>
<path d="M149.253 100.462C151.923 100.462 154.087 97.3572 154.087 93.5272C154.087 89.6971 151.923 86.5922 149.253 86.5922C146.584 86.5922 144.42 89.6971 144.42 93.5272C144.42 97.3572 146.584 100.462 149.253 100.462Z" fill="url(#paint8_linear_131_6321)"/>
<path d="M118.771 124.114C119.058 123.503 119.379 122.908 119.73 122.33C119.905 122.042 120.089 121.757 120.278 121.478C120.373 121.338 120.469 121.201 120.568 121.064C120.658 120.938 120.815 120.798 120.869 120.656L120.735 120.829C120.776 120.776 120.817 120.722 120.861 120.67C120.902 120.618 120.946 120.563 120.987 120.511C121.094 120.379 121.201 120.25 121.311 120.122C121.53 119.864 121.757 119.612 121.987 119.368C122.453 118.878 122.941 118.409 123.453 117.965C123.7 117.751 124.018 117.562 124.237 117.321C124.007 117.571 124.042 117.469 124.146 117.393C124.229 117.332 124.308 117.272 124.39 117.212C124.527 117.113 124.664 117.014 124.801 116.919C125.355 116.535 125.927 116.179 126.519 115.853C126.812 115.691 127.114 115.535 127.415 115.39C127.552 115.324 127.689 115.258 127.826 115.198C127.903 115.162 127.98 115.129 128.056 115.094C128.188 115.036 128.435 115.006 128.035 115.102C128.35 115.025 128.667 114.85 128.974 114.743C129.281 114.636 129.61 114.529 129.931 114.436C130.575 114.25 131.229 114.099 131.89 113.987C132.054 113.959 132.224 113.943 132.388 113.91C131.86 114.014 132.419 113.91 132.553 113.896C132.887 113.863 133.224 113.839 133.561 113.825C134.221 113.798 134.885 113.814 135.542 113.872C135.707 113.885 135.871 113.902 136.033 113.921C136.098 113.929 136.164 113.94 136.23 113.946C135.723 113.905 136.068 113.926 136.183 113.946C136.509 113.995 136.833 114.058 137.153 114.126C137.797 114.266 138.433 114.447 139.058 114.661C139.37 114.768 139.677 114.888 139.984 115.009C140.093 115.053 140.2 115.151 139.866 114.957C139.937 114.998 140.019 115.022 140.093 115.055C140.258 115.129 140.425 115.206 140.586 115.285C141.181 115.573 141.756 115.894 142.315 116.247C142.578 116.414 142.839 116.59 143.094 116.771C143.214 116.856 143.332 116.946 143.453 117.034C143.74 117.245 143.154 116.792 143.433 117.017C143.51 117.08 143.587 117.14 143.663 117.203C144.222 117.661 144.751 118.152 145.247 118.675C145.505 118.949 145.754 119.231 145.992 119.522C146.045 119.585 146.094 119.648 146.146 119.713C146.371 119.987 145.919 119.404 146.129 119.691C146.245 119.85 146.362 120.007 146.475 120.168C146.886 120.757 147.253 121.377 147.573 122.018C147.661 122.193 147.746 122.371 147.826 122.549C147.853 122.61 147.878 122.67 147.905 122.73C147.697 122.303 147.847 122.593 147.891 122.7C148.039 123.067 148.168 123.437 148.286 123.815C148.541 124.634 149.445 125.243 150.308 124.963C151.171 124.684 151.727 123.821 151.456 122.941C149.686 117.22 144.784 112.863 139.09 111.228C133.397 109.592 127.056 111.066 122.335 114.683C119.642 116.746 117.392 119.382 115.937 122.462C115.57 123.237 115.696 124.273 116.527 124.711C117.258 125.097 118.384 124.952 118.776 124.122L118.771 124.114Z" fill="#CCD2D6"/>
<path d="M50.7393 195.959C46.9608 197.483 42.6809 195.146 42.0425 191.12C41.9055 190.257 41.8343 189.446 41.826 188.687C41.7959 186.043 42.4425 183.481 43.7687 180.999C45.0921 178.516 45.9936 176.371 46.4731 174.557C46.9526 172.746 46.8539 171.003 46.1772 169.327C44.5304 165.247 41.9493 163.912 38.4367 165.332C36.8146 165.986 35.7432 167.11 35.2226 168.702C35.05 169.233 34.9459 169.79 34.9158 170.37C34.7842 172.856 33.3293 175.075 31.0222 176.007L29.1508 176.76C24.6572 178.574 19.8458 174.924 20.3965 170.11C20.5993 168.335 21.1007 166.63 21.898 165.003C24.0325 160.638 28.1288 157.232 34.1842 154.791C40.2122 152.36 45.4428 151.867 49.8762 153.317C54.3095 154.766 57.5619 158.057 59.6333 163.192C60.5375 165.436 60.9156 167.655 60.7649 169.853C60.6142 172.05 59.9402 174.508 58.7401 177.22L55.8274 183.44C55.0164 185.246 54.6218 186.92 54.6492 188.465C54.6547 188.778 54.6739 189.104 54.7123 189.438C55.0137 192.247 53.3587 194.904 50.7365 195.959H50.7393ZM47.5663 211.569C46.7608 209.569 46.8211 207.634 47.7472 205.769C48.676 203.903 50.2187 202.533 52.3833 201.659C54.5451 200.787 56.6083 200.702 58.5729 201.401C60.5375 202.102 61.9212 203.453 62.7295 205.451C63.5378 207.451 63.4748 209.385 62.5487 211.251C61.6198 213.12 60.0744 214.487 57.9126 215.361C55.7507 216.233 53.6875 216.32 51.7229 215.619C49.7583 214.92 48.3746 213.569 47.5663 211.569Z" fill="url(#paint9_linear_131_6321)"/>
<path d="M232.648 148.489C228.713 147.428 226.705 142.984 228.623 139.389C229.034 138.617 229.464 137.926 229.913 137.318C231.483 135.192 233.544 133.534 236.095 132.35C238.646 131.167 240.66 129.997 242.134 128.838C243.608 127.681 244.581 126.229 245.049 124.484C246.194 120.234 244.937 117.617 241.279 116.631C239.591 116.176 238.059 116.428 236.684 117.384C236.226 117.705 235.81 118.086 235.434 118.532C233.832 120.437 231.335 121.333 228.932 120.683L226.984 120.16C222.304 118.9 220.663 113.088 224.003 109.578C225.236 108.282 226.661 107.224 228.278 106.405C232.612 104.208 237.931 103.958 244.235 105.654C250.51 107.345 254.982 110.104 257.648 113.932C260.314 117.76 260.927 122.346 259.486 127.692C258.856 130.029 257.82 132.027 256.376 133.69C254.932 135.353 252.913 136.907 250.321 138.351L244.249 141.559C242.515 142.51 241.191 143.612 240.281 144.858C240.098 145.11 239.917 145.382 239.744 145.672C238.292 148.097 235.371 149.218 232.642 148.483L232.648 148.489ZM220.712 159.038C221.274 156.955 222.485 155.448 224.351 154.517C226.217 153.585 228.275 153.424 230.527 154.029C232.779 154.635 234.475 155.81 235.623 157.553C236.769 159.295 237.062 161.208 236.5 163.29C235.939 165.373 234.725 166.88 232.862 167.811C230.996 168.743 228.938 168.905 226.686 168.299C224.433 167.693 222.734 166.518 221.592 164.775C220.447 163.033 220.153 161.12 220.715 159.038H220.712Z" fill="url(#paint10_linear_131_6321)"/>
<path d="M216.402 55.4001C214.312 55.8796 212.281 54.3068 212.284 52.1614C212.284 51.701 212.314 51.2736 212.372 50.8791C212.577 49.5036 213.125 48.224 214.021 47.0431C214.917 45.8621 215.564 44.8209 215.964 43.9194C216.364 43.018 216.457 42.1028 216.246 41.1767C215.728 38.919 214.498 38.012 212.555 38.4559C211.657 38.6614 211.007 39.1573 210.605 39.941C210.47 40.2013 210.372 40.4835 210.306 40.7821C210.032 42.0645 209.089 43.0947 207.812 43.3879L206.777 43.6235C204.289 44.1935 202.091 41.8946 202.779 39.4396C203.034 38.5326 203.434 37.6887 203.985 36.9078C205.459 34.8172 207.87 33.3869 211.221 32.6197C214.556 31.858 217.318 32.0361 219.501 33.1567C221.685 34.2774 223.104 36.2612 223.754 39.1025C224.039 40.3438 224.05 41.5302 223.789 42.6591C223.529 43.7879 222.973 45.01 222.124 46.3224L220.093 49.3145C219.521 50.1858 219.178 51.0243 219.063 51.8298C219.038 51.9942 219.025 52.1641 219.014 52.3395C218.937 53.8246 217.855 55.0685 216.405 55.4001H216.402ZM213.457 63.2502C213.205 62.1432 213.397 61.1431 214.035 60.2499C214.673 59.3566 215.589 58.773 216.786 58.499C217.983 58.225 219.063 58.3538 220.025 58.8799C220.986 59.4087 221.595 60.2252 221.85 61.3322C222.102 62.4391 221.91 63.4392 221.274 64.3325C220.636 65.2257 219.721 65.8093 218.523 66.0833C217.326 66.3573 216.246 66.2313 215.284 65.7024C214.323 65.1764 213.714 64.3571 213.46 63.2502H213.457Z" fill="url(#paint11_linear_131_6321)"/>
<path d="M87.532 182.69C87.7676 181.983 88.6033 181.687 89.2308 182.089C92.0064 183.879 99.1934 188.216 107.764 191.071C116.499 193.984 125.081 194.587 128.268 194.713C128.955 194.74 129.462 195.362 129.347 196.042L122.974 233.862C122.873 234.462 122.316 234.876 121.711 234.804C117.477 234.292 101.829 231.927 92.5736 224.143C83.348 216.383 80.0436 210.15 79.2846 208.517C79.164 208.254 79.1476 207.955 79.238 207.681L87.532 182.687V182.69Z" fill="url(#paint12_linear_131_6321)"/>
<path opacity="0.5" d="M91.1241 213.95C91.0419 213.95 90.9597 213.939 90.8775 213.912C90.4445 213.775 90.2034 213.315 90.3404 212.882L96.4095 193.639C96.5465 193.206 97.0096 192.965 97.4398 193.102C97.8727 193.239 98.1138 193.699 97.9768 194.132L91.9077 213.375C91.7981 213.726 91.472 213.95 91.1241 213.95ZM97.9823 216.912C97.8919 216.912 97.7987 216.896 97.7083 216.866C97.2808 216.715 97.0562 216.246 97.2069 215.816L101.125 204.689C101.276 204.262 101.744 204.037 102.174 204.188C102.602 204.338 102.827 204.807 102.676 205.237L98.7577 216.364C98.6399 216.701 98.322 216.912 97.9823 216.912Z" fill="#CCD2D6"/>
<path opacity="0.5" d="M20.8431 92.4558L43.3768 86.1593C44.3112 85.899 45.1222 86.847 44.7194 87.7293C42.5932 92.3928 38.0612 103.367 38.4366 111.452C38.8229 119.776 46.0949 129.629 49.1281 133.397C49.6843 134.09 49.2678 135.123 48.3883 135.238L19.5936 139.033C19.1278 139.093 18.673 138.866 18.4483 138.455C16.4618 134.835 8.07192 117.034 20.1334 93.0367C20.2786 92.749 20.5389 92.538 20.8458 92.4503L20.8431 92.4558Z" fill="#CCD2D6"/>
</g>
<defs>
<linearGradient id="paint0_linear_131_6321" x1="137" y1="40.6397" x2="137" y2="268.98" gradientUnits="userSpaceOnUse">
<stop stop-color="#CCD2D6" stop-opacity="0.1"/>
<stop offset="1" stop-color="#CCD2D6" stop-opacity="0.25"/>
</linearGradient>
<linearGradient id="paint1_linear_131_6321" x1="232.78" y1="40.6397" x2="232.78" y2="268.98" gradientUnits="userSpaceOnUse">
<stop stop-color="#CCD2D6" stop-opacity="0.1"/>
<stop offset="1" stop-color="#CCD2D6" stop-opacity="0.25"/>
</linearGradient>
<linearGradient id="paint2_linear_131_6321" x1="36.1489" y1="40.6397" x2="36.1489" y2="268.98" gradientUnits="userSpaceOnUse">
<stop stop-color="#CCD2D6" stop-opacity="0.1"/>
<stop offset="1" stop-color="#CCD2D6" stop-opacity="0.25"/>
</linearGradient>
<linearGradient id="paint3_linear_131_6321" x1="121.996" y1="76.1857" x2="152.637" y2="152.16" gradientUnits="userSpaceOnUse">
<stop stop-color="#CCD2D6" stop-opacity="0.1"/>
<stop offset="1" stop-color="#CCD2D6" stop-opacity="0.25"/>
</linearGradient>
<linearGradient id="paint4_linear_131_6321" x1="120.486" y1="76.7775" x2="188.065" y2="222.008" gradientUnits="userSpaceOnUse">
<stop stop-color="#CCD2D6" stop-opacity="0.3"/>
<stop offset="1" stop-color="#CCD2D6" stop-opacity="0.7"/>
</linearGradient>
<linearGradient id="paint5_linear_131_6321" x1="202.415" y1="231.949" x2="174.921" y2="183.048" gradientUnits="userSpaceOnUse">
<stop stop-color="#CCD2D6" stop-opacity="0.7"/>
<stop offset="1" stop-color="#CCD2D6"/>
</linearGradient>
<linearGradient id="paint6_linear_131_6321" x1="171.718" y1="198.192" x2="171.927" y2="160.413" gradientUnits="userSpaceOnUse">
<stop stop-color="#CCD2D6" stop-opacity="0.7"/>
<stop offset="1" stop-color="#CCD2D6"/>
</linearGradient>
<linearGradient id="paint7_linear_131_6321" x1="117.965" y1="84.1536" x2="117.965" y2="103.808" gradientUnits="userSpaceOnUse">
<stop stop-color="#CCD2D6" stop-opacity="0.7"/>
<stop offset="1" stop-color="#CCD2D6"/>
</linearGradient>
<linearGradient id="paint8_linear_131_6321" x1="149.253" y1="84.1536" x2="149.253" y2="103.808" gradientUnits="userSpaceOnUse">
<stop stop-color="#CCD2D6" stop-opacity="0.7"/>
<stop offset="1" stop-color="#CCD2D6"/>
</linearGradient>
<linearGradient id="paint9_linear_131_6321" x1="40.3738" y1="168.587" x2="65.138" y2="231.968" gradientUnits="userSpaceOnUse">
<stop stop-color="#CCD2D6" stop-opacity="0.7"/>
<stop offset="1" stop-color="#CCD2D6"/>
</linearGradient>
<linearGradient id="paint10_linear_131_6321" x1="242.509" y1="116.968" x2="211.868" y2="181.607" gradientUnits="userSpaceOnUse">
<stop stop-color="#CCD2D6" stop-opacity="0.7"/>
<stop offset="1" stop-color="#CCD2D6"/>
</linearGradient>
<linearGradient id="paint11_linear_131_6321" x1="213.517" y1="37.4311" x2="210.999" y2="78.2873" gradientUnits="userSpaceOnUse">
<stop stop-color="#CCD2D6" stop-opacity="0.7"/>
<stop offset="1" stop-color="#CCD2D6"/>
</linearGradient>
<linearGradient id="paint12_linear_131_6321" x1="98.4564" y1="192.633" x2="128.12" y2="240.764" gradientUnits="userSpaceOnUse">
<stop stop-color="#CCD2D6" stop-opacity="0.3"/>
<stop offset="1" stop-color="#CCD2D6" stop-opacity="0.7"/>
</linearGradient>
<clipPath id="clip0_131_6321">
<rect width="274" height="274" fill="white"/>
</clipPath>
</defs>
</svg>
