<svg width="21" height="20" viewBox="0 0 21 20" fill="none" xmlns="http://www.w3.org/2000/svg">
<path d="M13.8334 2.8898C15.0681 3.50343 15.9167 4.77762 15.9167 6.25C15.9167 7.72238 15.0681 8.99657 13.8334 9.6102M15.5 13.972C16.7596 14.5419 17.8938 15.4708 18.8334 16.6667M2.16669 16.6667C3.78876 14.6021 5.991 13.3333 8.41669 13.3333C10.8424 13.3333 13.0446 14.6021 14.6667 16.6667M12.1667 6.25C12.1667 8.32107 10.4878 10 8.41669 10C6.34562 10 4.66669 8.32107 4.66669 6.25C4.66669 4.17893 6.34562 2.5 8.41669 2.5C10.4878 2.5 12.1667 4.17893 12.1667 6.25Z" stroke="#0045BA" stroke-width="1.67" stroke-linecap="round" stroke-linejoin="round"/>
</svg>
