<svg width="5" height="16" viewBox="0 0 5 16" fill="none" xmlns="http://www.w3.org/2000/svg">
<path d="M2.49996 8.83331C2.9602 8.83331 3.33329 8.46022 3.33329 7.99998C3.33329 7.53974 2.9602 7.16665 2.49996 7.16665C2.03972 7.16665 1.66663 7.53974 1.66663 7.99998C1.66663 8.46022 2.03972 8.83331 2.49996 8.83331Z" stroke="#667085" stroke-width="1.5" stroke-linecap="round" stroke-linejoin="round"/>
<path d="M2.49996 2.99998C2.9602 2.99998 3.33329 2.62688 3.33329 2.16665C3.33329 1.70641 2.9602 1.33331 2.49996 1.33331C2.03972 1.33331 1.66663 1.70641 1.66663 2.16665C1.66663 2.62688 2.03972 2.99998 2.49996 2.99998Z" stroke="#667085" stroke-width="1.5" stroke-linecap="round" stroke-linejoin="round"/>
<path d="M2.49996 14.6666C2.9602 14.6666 3.33329 14.2935 3.33329 13.8333C3.33329 13.3731 2.9602 13 2.49996 13C2.03972 13 1.66663 13.3731 1.66663 13.8333C1.66663 14.2935 2.03972 14.6666 2.49996 14.6666Z" stroke="#667085" stroke-width="1.5" stroke-linecap="round" stroke-linejoin="round"/>
</svg>
